<svg fill="none" height="246" viewBox="0 0 246 246" width="246" xmlns="http://www.w3.org/2000/svg" xmlns:xlink="http://www.w3.org/1999/xlink"><filter id="a" color-interpolation-filters="sRGB" filterUnits="userSpaceOnUse" height="326" width="278" x="-11" y="-24"><feFlood flood-opacity="0" result="BackgroundImageFix"/><feBlend in="SourceGraphic" in2="BackgroundImageFix" mode="normal" result="shape"/><feColorMatrix in="SourceAlpha" result="hardAlpha" type="matrix" values="0 0 0 0 0 0 0 0 0 0 0 0 0 0 0 0 0 0 127 0"/><feMorphology in="SourceAlpha" operator="erode" radius="8" result="effect1_innerShadow_397_2938"/><feOffset dx="21" dy="73"/><feGaussianBlur stdDeviation="24"/><feComposite in2="hardAlpha" k2="-1" k3="1" operator="arithmetic"/><feColorMatrix type="matrix" values="0 0 0 0 0.682806 0 0 0 0 0.0652778 0 0 0 0 0.783333 0 0 0 0.14 0"/><feBlend in2="shape" mode="normal" result="effect1_innerShadow_397_2938"/><feColorMatrix in="SourceAlpha" result="hardAlpha" type="matrix" values="0 0 0 0 0 0 0 0 0 0 0 0 0 0 0 0 0 0 127 0"/><feOffset dy="-24"/><feGaussianBlur stdDeviation="15.5"/><feComposite in2="hardAlpha" k2="-1" k3="1" operator="arithmetic"/><feColorMatrix type="matrix" values="0 0 0 0 0.943639 0 0 0 0 0.223611 0 0 0 0 0.958333 0 0 0 0.44 0"/><feBlend in2="effect1_innerShadow_397_2938" mode="normal" result="effect2_innerShadow_397_2938"/><feColorMatrix in="SourceAlpha" result="hardAlpha" type="matrix" values="0 0 0 0 0 0 0 0 0 0 0 0 0 0 0 0 0 0 127 0"/><feOffset dx="-11" dy="30"/><feGaussianBlur stdDeviation="15.5"/><feComposite in2="hardAlpha" k2="-1" k3="1" operator="arithmetic"/><feColorMatrix type="matrix" values="0 0 0 0 1 0 0 0 0 0.766722 0 0 0 0 0.693056 0 0 0 0.68 0"/><feBlend in2="effect2_innerShadow_397_2938" mode="normal" result="effect3_innerShadow_397_2938"/></filter><filter id="b" color-interpolation-filters="sRGB" filterUnits="userSpaceOnUse" height="149" width="149" x="-15" y="58"><feFlood flood-opacity="0" result="BackgroundImageFix"/><feBlend in="SourceGraphic" in2="BackgroundImageFix" mode="normal" result="shape"/><feGaussianBlur result="effect1_foregroundBlur_397_2938" stdDeviation="19.5"/></filter><filter id="c" color-interpolation-filters="sRGB" filterUnits="userSpaceOnUse" height="149" width="149" x="114" y="58"><feFlood flood-opacity="0" result="BackgroundImageFix"/><feBlend in="SourceGraphic" in2="BackgroundImageFix" mode="normal" result="shape"/><feGaussianBlur result="effect1_foregroundBlur_397_2938" stdDeviation="19.5"/></filter><filter id="d" color-interpolation-filters="sRGB" filterUnits="userSpaceOnUse" height="34.5" width="67.5017" x="40.8352" y="63"><feFlood flood-opacity="0" result="BackgroundImageFix"/><feBlend in="SourceGraphic" in2="BackgroundImageFix" mode="normal" result="shape"/><feColorMatrix in="SourceAlpha" result="hardAlpha" type="matrix" values="0 0 0 0 0 0 0 0 0 0 0 0 0 0 0 0 0 0 127 0"/><feMorphology in="SourceAlpha" operator="dilate" radius="26.45" result="effect1_innerShadow_397_2938"/><feOffset dx="9.2" dy="-7"/><feGaussianBlur stdDeviation="10.35"/><feComposite in2="hardAlpha" k2="-1" k3="1" operator="arithmetic"/><feColorMatrix type="matrix" values="0 0 0 0 0.462111 0 0 0 0 0.203767 0 0 0 0 0.504167 0 0 0 0.35 0"/><feBlend in2="shape" mode="normal" result="effect1_innerShadow_397_2938"/></filter><filter id="e" color-interpolation-filters="sRGB" filterUnits="userSpaceOnUse" height="34.5" width="67.5017" x="137.835" y="63"><feFlood flood-opacity="0" result="BackgroundImageFix"/><feBlend in="SourceGraphic" in2="BackgroundImageFix" mode="normal" result="shape"/><feColorMatrix in="SourceAlpha" result="hardAlpha" type="matrix" values="0 0 0 0 0 0 0 0 0 0 0 0 0 0 0 0 0 0 127 0"/><feMorphology in="SourceAlpha" operator="dilate" radius="26.45" result="effect1_innerShadow_397_2938"/><feOffset dx="9.2" dy="-9"/><feGaussianBlur stdDeviation="10.35"/><feComposite in2="hardAlpha" k2="-1" k3="1" operator="arithmetic"/><feColorMatrix type="matrix" values="0 0 0 0 0.462111 0 0 0 0 0.203767 0 0 0 0 0.504167 0 0 0 0.35 0"/><feBlend in2="shape" mode="normal" result="effect1_innerShadow_397_2938"/></filter><filter id="f" color-interpolation-filters="sRGB" filterUnits="userSpaceOnUse" height="77.5" width="142.887" x="51.2151" y="112"><feFlood flood-opacity="0" result="BackgroundImageFix"/><feBlend in="SourceGraphic" in2="BackgroundImageFix" mode="normal" result="shape"/><feColorMatrix in="SourceAlpha" result="hardAlpha" type="matrix" values="0 0 0 0 0 0 0 0 0 0 0 0 0 0 0 0 0 0 127 0"/><feOffset dy="4"/><feGaussianBlur stdDeviation="8"/><feComposite in2="hardAlpha" k2="-1" k3="1" operator="arithmetic"/><feColorMatrix type="matrix" values="0 0 0 0 0 0 0 0 0 0 0 0 0 0 0 0 0 0 0.25 0"/><feBlend in2="shape" mode="normal" result="effect1_innerShadow_397_2938"/></filter><filter id="g" color-interpolation-filters="sRGB" filterUnits="userSpaceOnUse" height="27" width="144.384" x="50.6226" y="99.5"><feFlood flood-opacity="0" result="BackgroundImageFix"/><feBlend in="SourceGraphic" in2="BackgroundImageFix" mode="normal" result="shape"/><feColorMatrix in="SourceAlpha" result="hardAlpha" type="matrix" values="0 0 0 0 0 0 0 0 0 0 0 0 0 0 0 0 0 0 127 0"/><feOffset dy="-3"/><feGaussianBlur stdDeviation="8"/><feComposite in2="hardAlpha" k2="-1" k3="1" operator="arithmetic"/><feColorMatrix type="matrix" values="0 0 0 0 0 0 0 0 0 0 0 0 0 0 0 0 0 0 0.47 0"/><feBlend in2="shape" mode="normal" result="effect1_innerShadow_397_2938"/></filter><filter id="h" color-interpolation-filters="sRGB" filterUnits="userSpaceOnUse" height="60" width="61" x="90" y="138.5"><feFlood flood-opacity="0" result="BackgroundImageFix"/><feBlend in="SourceGraphic" in2="BackgroundImageFix" mode="normal" result="shape"/><feColorMatrix in="SourceAlpha" result="hardAlpha" type="matrix" values="0 0 0 0 0 0 0 0 0 0 0 0 0 0 0 0 0 0 127 0"/><feOffset dy="4"/><feGaussianBlur stdDeviation="5"/><feComposite in2="hardAlpha" k2="-1" k3="1" operator="arithmetic"/><feColorMatrix type="matrix" values="0 0 0 0 0 0 0 0 0 0 0 0 0 0 0 0 0 0 0.25 0"/><feBlend in2="shape" mode="normal" result="effect1_innerShadow_397_2938"/><feColorMatrix in="SourceAlpha" result="hardAlpha" type="matrix" values="0 0 0 0 0 0 0 0 0 0 0 0 0 0 0 0 0 0 127 0"/><feOffset dx="-3" dy="4"/><feGaussianBlur stdDeviation="2"/><feComposite in2="hardAlpha" k2="-1" k3="1" operator="arithmetic"/><feColorMatrix type="matrix" values="0 0 0 0 1 0 0 0 0 1 0 0 0 0 1 0 0 0 0.29 0"/><feBlend in2="effect1_innerShadow_397_2938" mode="normal" result="effect2_innerShadow_397_2938"/><feColorMatrix in="SourceAlpha" result="hardAlpha" type="matrix" values="0 0 0 0 0 0 0 0 0 0 0 0 0 0 0 0 0 0 127 0"/><feOffset dy="-10"/><feGaussianBlur stdDeviation="5"/><feComposite in2="hardAlpha" k2="-1" k3="1" operator="arithmetic"/><feColorMatrix type="matrix" values="0 0 0 0 0.828932 0 0 0 0 0.0596354 0 0 0 0 0.954167 0 0 0 0.6 0"/><feBlend in2="effect2_innerShadow_397_2938" mode="normal" result="effect3_innerShadow_397_2938"/></filter><radialGradient id="i" cx="0" cy="0" gradientTransform="matrix(14.00013318 230.00029945 -230.00029945 14.00013318 109 16)" gradientUnits="userSpaceOnUse" r="1"><stop offset=".576389" stop-color="#ffbb0c"/><stop offset="1" stop-color="#ffc907"/></radialGradient><linearGradient id="j" gradientUnits="userSpaceOnUse" x1="122.5" x2="107.5" y1="185.5" y2="99.5"><stop offset="0" stop-color="#fb39a2"/><stop offset="1" stop-color="#c520ff"/></linearGradient><linearGradient id="k" gradientUnits="userSpaceOnUse" x1="122.5" x2="77.5" y1="185.5" y2="90.5"><stop offset="0" stop-color="#3a2ec0"/><stop offset="1" stop-color="#ff20c1"/></linearGradient><radialGradient id="l" cx="0" cy="0" gradientTransform="matrix(.707321 39.82921989 -50.21368251 .89173707 121.293 154.671)" gradientUnits="userSpaceOnUse" r="1"><stop offset="0" stop-color="#fc4141"/><stop offset="1" stop-color="#ff0f0f"/></radialGradient><clipPath id="m"><path d="m0 0h246v246h-246z"/></clipPath><mask id="n" height="74" maskUnits="userSpaceOnUse" width="144" x="51" y="112"><path d="m72.2 112c-5.6074 0-8.4111 0-11.5527 1.42-4.2653 1.927-8.8081 8.19-9.3162 12.843-.3743 3.427.1839 5.136 1.3002 8.554 3.5568 10.891 9.6441 20.903 17.8964 29.155 13.7839 13.784 32.4793 21.528 51.9723 21.528s38.188-7.744 51.972-21.528c8.601-8.6 14.85-19.112 18.333-30.538 1.041-3.412 1.561-5.117 1.165-8.29-.543-4.355-4.761-10.051-8.768-11.84-2.919-1.304-5.597-1.304-10.952-1.304h-51.75z" fill="url(#j)"/></mask><g clip-path="url(#m)"><g filter="url(#a)"><path d="m0 115c0-63.5128 51.4873-115 115-115h12c65.722 0 119 53.2781 119 119v8c0 65.722-53.278 119-119 119h-4c-67.931 0-123-55.069-123-123z" fill="url(#i)"/></g><g filter="url(#b)"><circle cx="59.5" cy="132.5" fill="#ff4242" r="35.5"/></g><g filter="url(#c)"><circle cx="188.5" cy="132.5" fill="#ff4242" r="35.5"/></g><g filter="url(#d)"><path d="m101.54 97.5c4.12 0 7.541-3.3782 6.657-7.4022-1.403-6.3866-4.606-12.297-9.3018-16.993-6.47-6.47-15.2452-10.1048-24.3952-10.1048s-17.9252 3.6348-24.3952 10.1048c-4.4539 4.4539-7.5642 10.0002-9.0702 16.0092-1.1372 4.5379 2.7578 8.386 7.436 8.386 4.3858 0 7.7925-3.7188 9.6567-7.6887.8816-1.8775 2.0877-3.6068 3.5824-5.1016 3.3922-3.3921 7.993-5.2979 12.7903-5.2979s9.3981 1.9058 12.7903 5.2979c1.252 1.2521 2.3015 2.6688 3.1275 4.1992 2.348 4.3508 6.1783 8.5911 11.1222 8.5911z" fill="#c4c4c4"/><path d="m101.54 97.5c4.12 0 7.541-3.3782 6.657-7.4022-1.403-6.3866-4.606-12.297-9.3018-16.993-6.47-6.47-15.2452-10.1048-24.3952-10.1048s-17.9252 3.6348-24.3952 10.1048c-4.4539 4.4539-7.5642 10.0002-9.0702 16.0092-1.1372 4.5379 2.7578 8.386 7.436 8.386 4.3858 0 7.7925-3.7188 9.6567-7.6887.8816-1.8775 2.0877-3.6068 3.5824-5.1016 3.3922-3.3921 7.993-5.2979 12.7903-5.2979s9.3981 1.9058 12.7903 5.2979c1.252 1.2521 2.3015 2.6688 3.1275 4.1992 2.348 4.3508 6.1783 8.5911 11.1222 8.5911z" fill="#221725"/></g><g filter="url(#e)"><path d="m198.54 97.5c4.12 0 7.541-3.3782 6.657-7.4022-1.403-6.3866-4.606-12.297-9.302-16.993-6.47-6.47-15.245-10.1048-24.395-10.1048s-17.925 3.6348-24.395 10.1048c-4.454 4.4539-7.564 10.0002-9.07 16.0092-1.138 4.5379 2.757 8.386 7.436 8.386 4.385 0 7.792-3.7188 9.656-7.6887.882-1.8775 2.088-3.6068 3.583-5.1016 3.392-3.3921 7.993-5.2979 12.79-5.2979s9.398 1.9058 12.79 5.2979c1.252 1.2521 2.302 2.6688 3.128 4.1992 2.348 4.3508 6.178 8.5911 11.122 8.5911z" fill="#c4c4c4"/><path d="m198.54 97.5c4.12 0 7.541-3.3782 6.657-7.4022-1.403-6.3866-4.606-12.297-9.302-16.993-6.47-6.47-15.245-10.1048-24.395-10.1048s-17.925 3.6348-24.395 10.1048c-4.454 4.4539-7.564 10.0002-9.07 16.0092-1.138 4.5379 2.757 8.386 7.436 8.386 4.385 0 7.792-3.7188 9.656-7.6887.882-1.8775 2.088-3.6068 3.583-5.1016 3.392-3.3921 7.993-5.2979 12.79-5.2979s9.398 1.9058 12.79 5.2979c1.252 1.2521 2.302 2.6688 3.128 4.1992 2.348 4.3508 6.178 8.5911 11.122 8.5911z" fill="#221725"/></g><g mask="url(#n)"><g filter="url(#f)"><path d="m72.2 112c-5.6074 0-8.4111 0-11.5527 1.42-4.2653 1.927-8.8081 8.19-9.3162 12.843-.3743 3.427.1839 5.136 1.3002 8.554 3.5568 10.891 9.6441 20.903 17.8964 29.155 13.7839 13.784 32.4793 21.528 51.9723 21.528s38.188-7.744 51.972-21.528c8.601-8.6 14.85-19.112 18.333-30.538 1.041-3.412 1.561-5.117 1.165-8.29-.543-4.355-4.761-10.051-8.768-11.84-2.919-1.304-5.597-1.304-10.952-1.304h-51.75z" fill="url(#k)"/></g><g filter="url(#g)"><path d="m51.4587 116.18c-2.7812-6.378 1.7005-13.68 8.6584-13.68h123.6539c1.509 0-2.262 0-1.243.177 4.734.822 10.863 11.312 9.255 15.839-.346.975 4.792-8.143 2.737-4.496-2.609 4.629-3.002 12.48-8.316 12.48h-130.342c-3.8548 0-2.8624-6.787-4.4033-10.32z" fill="#fff"/></g><g filter="url(#h)"><ellipse cx="122" cy="171.5" fill="url(#l)" rx="29" ry="23"/></g></g></g></svg>